<svg xmlns="http://www.w3.org/2000/svg" width="32" height="32" viewBox="0 0 20 20"><path fill="currentColor" d="M8.73 4.706q-.046.106-.09.106q-.051.01-.052-.056q0-.134.2-.168h.105a.19.19 0 0 0-.163.118m.957-.034a.17.17 0 0 0-.184-.05q.252-.123.336.022q.031.067-.031.1q-.043.012-.121-.072M6.054 9.543a1 1 0 0 0-.047.14a.7.7 0 0 1-.058.15a1 1 0 0 1-.105.146q-.073.111-.01.134q.042.01.131-.079a.56.56 0 0 0 .153-.279a.4.4 0 0 1 .021-.067a.3.3 0 0 0 .021-.095v-.034l-.01-.027q-.01-.029-.032-.023q-.042-.01-.064.034m8.474 3.504l.079-.307q.036-.138.052-.29q.015-.15.032-.24q.015-.089.005-.25a4 4 0 0 1-.01-.218q0-.056-.037-.245l-.042-.23a9 9 0 0 0-.053-.278l-.057-.296q-.105-.535-.495-1.15q-.389-.614-.757-.836q.253.222.6.926q.915 1.808.567 3.102q-.115.447-.525.469q-.327.045-.405-.206q-.079-.252-.084-.932a5.7 5.7 0 0 0-.121-1.194a8 8 0 0 0-.205-.77a3 3 0 0 0-.205-.508a3 3 0 0 0-.163-.274a1 1 0 0 0-.136-.167l-.079-.078a7.5 7.5 0 0 0-.326-1.15q-.178-.457-.31-.625a3 3 0 0 1-.247-.368a1.4 1.4 0 0 1-.158-.446q-.042-.234.063-.597t.048-.553t-.468-.279a2 2 0 0 1-.468-.2q-.31-.168-.373-.18q-.084-.01-.116-.29a1.2 1.2 0 0 1 .084-.568q.116-.29.379-.302q.389-.033.536.335q.147.369.042.648q-.115.212-.021.295q.095.084.315.006q.137-.045.137-.402v-.413a2.6 2.6 0 0 0-.142-.557a.9.9 0 0 0-.468-.508a1.4 1.4 0 0 0-.284-.084q-1.124.09-.935 1.495q0 .168-.01.168q-.096-.1-.31-.117a1.5 1.5 0 0 0-.348.005q-.13.023-.162-.055q.01-.637-.169-1.005q-.178-.368-.473-.38q-.283-.01-.436.307q-.153.319-.174.664q-.01.168.037.413q.048.245.137.419q.09.172.163.15a.3.3 0 0 0 .168-.156q.042-.1-.074-.09q-.074 0-.163-.161a.85.85 0 0 1-.1-.374a.7.7 0 0 1 .095-.413q.105-.168.357-.156q.18 0 .284.234q.105.234.1.435a2 2 0 0 1-.015.246q-.232.167-.326.323a.9.9 0 0 1-.29.262a4 4 0 0 0-.215.14a.65.65 0 0 0-.163.301q-.026.146.079.201q.147.09.263.218q.115.128.168.212t.194.145t.373.072q.494.023 1.073-.167a3 3 0 0 1 .242-.078q.22-.067.362-.117t.31-.145a.54.54 0 0 0 .221-.196q.095-.156.21-.089a.15.15 0 0 1 .069.095q.015.061-.032.134q-.048.072-.173.106q-.21.067-.595.24l-.478.217q-.462.213-.736.257q-.263.056-.83-.022q-.105-.023-.095.022q.01.044.178.212q.263.257.705.246a1.5 1.5 0 0 0 .378-.079a3 3 0 0 0 .379-.156q.178-.09.352-.195t.316-.19q.141-.083.257-.134q.117-.05.184-.028q.069.023.09.123a.1.1 0 0 1-.01.05a.14.14 0 0 1-.043.056a.8.8 0 0 1-.152.106a1 1 0 0 1-.095.05q-.037.018-.105.056a1 1 0 0 1-.1.05a4.7 4.7 0 0 0-.71.492q-.415.335-.698.48q-.284.145-.515.01q-.221-.122-.663-.814q-.231-.345-.263-.245a.4.4 0 0 0-.01.111q0 .279-.158.63q-.157.353-.31.62a2 2 0 0 0-.22.648a1 1 0 0 0 .12.703q-.242.067-.657 1.004t-.5 1.574a8 8 0 0 0-.015.77q.005.568-.058.658q-.084.268-.305.034q-.336-.346-.378-1.05q-.021-.312.042-.624q.041-.213-.01-.201l-.043.056q-.378.724.105 1.852q.053.134.263.312q.21.18.252.223q.21.258 1.094 1.01q.883.753.977.854a.63.63 0 0 1 .185.424a.72.72 0 0 1-.148.48a.64.64 0 0 1-.478.257q.083.167.305.497q.22.33.294.602q.074.273.074.787q.483-.268.073-1.027a1 1 0 0 0-.11-.179l-.1-.133q-.031-.045-.021-.068q.03-.055.136-.106q.105-.05.21.028q.484.58 1.746.402q1.398-.167 1.86-.971q.242-.424.358-.335q.127.067.105.58q-.01.279-.242 1.027q-.095.256-.063.419q.03.161.252.172q.031-.211.153-.859q.12-.647.142-1.004q.02-.235-.069-.82a6.3 6.3 0 0 1-.078-1.083q.01-.496.241-.787q.158-.2.537-.2q.01-.414.362-.592a1.24 1.24 0 0 1 .763-.117q.41.06.63.25q0-.2-.578-.468m-6.05-9.095q-.059-.146-.121-.167q-.095-.023-.095.078q.021.056.053.067q.105 0 .073.167q-.031.225.085.224q.03 0 .031-.034a.6.6 0 0 0-.026-.335m4.363 2.405a.3.3 0 0 0-.137-.056a.4.4 0 0 1-.152-.06a.5.5 0 0 1-.1-.09a3 3 0 0 1-.132-.162a.2.2 0 0 0-.042-.045q-.01-.005-.042.017q-.147.18.074.485q.22.307.41.352q.095.01.152-.09a.32.32 0 0 0 .037-.223a.23.23 0 0 0-.068-.128M11.038 4.11a.44.44 0 0 0-.053-.218a.4.4 0 0 0-.115-.14q-.064-.044-.095-.033q-.147.01-.074.078l.042.023q.148.045.19.346q0 .033.084-.023zm.541-2.656a.4.4 0 0 0-.094-.079l-.1-.067q-.159-.167-.253-.167q-.095.01-.12.083a.26.26 0 0 0-.01.145a.3.3 0 0 1-.006.14a.4.4 0 0 1-.064.117a.6.6 0 0 0-.063.1q-.01.028.032.096q.042.033.084 0q.042-.034.116-.1a.5.5 0 0 1 .157-.101q.01-.012.095-.011a.5.5 0 0 0 .158-.023q.073-.022.094-.078q0-.022-.026-.055m6.293 15.294q.116.14.126.268a.7.7 0 0 1-.027.25a.6.6 0 0 1-.162.246a3 3 0 0 1-.247.218q-.12.095-.316.206a14 14 0 0 1-.667.357q-.2.1-.284.145a5.5 5.5 0 0 0-.9.625q-.498.413-.793.714q-.178.18-.715.218t-.935-.162a.9.9 0 0 1-.31-.262a1.5 1.5 0 0 1-.174-.285q-.053-.123-.231-.217q-.18-.095-.494-.106a62 62 0 0 0-1.367-.011q-.2 0-.6.016q-.399.017-.61.028a2.3 2.3 0 0 0-.835.168a1.9 1.9 0 0 0-.563.335a2 2 0 0 1-.457.318a1.1 1.1 0 0 1-.562.128q-.304-.011-1.167-.346a10.3 10.3 0 0 0-2.072-.586q-.337-.061-.525-.1a5 5 0 0 1-.415-.106a1.1 1.1 0 0 1-.353-.162a.54.54 0 0 1-.178-.218q-.106-.256.074-.742q.179-.485.189-.608a1.8 1.8 0 0 0-.042-.446a9 9 0 0 0-.105-.475a1.5 1.5 0 0 1-.048-.407q.006-.2.11-.301q.15-.135.6-.157q.452-.023.63-.134q.316-.201.443-.39q.126-.19.126-.57q.22.815-.337 1.183q-.336.223-.872.168q-.358-.035-.453.111q-.135.168.053.636q.021.067.084.201t.09.201a1 1 0 0 1 .047.19a1 1 0 0 1 .01.245q0 .168-.178.547q-.179.379-.148.536q.031.19.39.29q.21.066.888.206t1.046.229q.252.067.778.245q.526.179.867.257q.342.078.583.045q.453-.068.679-.313a.85.85 0 0 0 .242-.536a2.2 2.2 0 0 0-.08-.652a3.3 3.3 0 0 0-.199-.58a8 8 0 0 0-.21-.408q-1.272-2.12-1.777-2.701q-.714-.826-1.188-.446q-.116.1-.158-.168a2 2 0 0 1-.02-.424q.01-.323.104-.58t.253-.525t.23-.468q.085-.235.28-.804q.193-.57.31-.87q.115-.301.315-.68q.2-.381.41-.603Q7.21 7.132 7.36 6.55q-.126-1.25-.169-3.46q-.021-1.003.253-1.69Q7.717.715 8.557.235Q8.967.001 9.65.001q.557-.011 1.115.15q.557.162.935.464q.6.468.962 1.356q.363.886.31 1.645q-.053 1.06.316 2.389q.357 1.26 1.398 2.432q.578.66 1.046 1.82t.625 2.131q.084.547.053.943t-.126.62q-.094.222-.21.245q-.105.022-.248.212q-.141.189-.284.396a1.3 1.3 0 0 1-.425.374q-.284.167-.642.156a1.4 1.4 0 0 1-.33-.056a.5.5 0 0 1-.237-.15a2 2 0 0 1-.142-.173a1.5 1.5 0 0 1-.12-.229q-.075-.162-.095-.217q-.232-.413-.431-.335q-.2.077-.295.546t.074 1.083q.21.78.01 2.176q-.105.725.19 1.122q.294.396.767.368q.473-.03.894-.396q.62-.547.94-.742q.321-.195 1.089-.475q.556-.201.809-.407q.252-.207.194-.385a.63.63 0 0 0-.262-.318a2.5 2.5 0 0 0-.542-.262q-.346-.123-.52-.536a1.9 1.9 0 0 1-.158-.81q.016-.395.163-.53a2.9 2.9 0 0 0 .237 1.084q.078.167.215.318q.137.15.22.212q.085.061.227.145t.174.106q.21.134.326.274"/></svg>