<svg xmlns="http://www.w3.org/2000/svg" width="32" height="32" viewBox="0 0 24 24"><path fill="currentColor" d="M3.06.11c-.05.04-.11.02-.19.04v.03h-.09V.2h-.07v.02L2.5.27v.02h-.04v.02l-.12.03v.02L2.2.41v.02h-.05v.02L2.02.5l-.03.05l-.09.02v.02l-.07.03l-.02.04h-.05v.03l-.07.02l-.02.05h-.05l-.05.07h-.04l-.09.11h-.05l-.21.24l-.14.11v.05l-.11.09l-.03.07l-.04.03v.04l-.05.03l-.02.07H.76v.04l-.04.03v.04l-.05.02l-.02.1l-.05.02l-.05.14H.53v.05H.51l-.05.14H.44v.07H.42l-.03.09H.37l-.05.21a5.5 5.5 0 0 0-.18 1.89v15.11c-.029.441.002.885.09 1.32v.12h.02l.03.16H.3v.07h.02v.07h.03v.07h.02v.07h.02v.05h.03l.02.12h.02l.05.14h.02v.04h.02l.05.14l.05.02l.02.1h.02l.03.07l.04.02l.03.09l.07.05v.05l.07.04v.05l.11.09v.05l.14.12l.21.23h.05l.09.12h.04l.05.07h.05l.04.07h.05l.02.04h.05l.02.05l.1.02l.02.05h.05v.02h.04v.02h.05v.03h.04v.02h.05v.02h.05v.03c.04.01.09.03.14.04v.03c.18.06.37.12.55.18h.12v.03h.11v.02h.14v.02h.19q.333.054.67.03h15.76q.292.025.58-.03c.11 0 .22-.01.33-.02v-.02l.23-.03c.18-.06.37-.12.55-.18v-.03c.05-.01.1-.03.14-.04v-.03h.05v-.02h.04v-.02h.05v-.03h.05v-.02h.04v-.02h.05c.01-.02.02-.03.02-.05l.1-.02l.04-.07l.1-.02l.04-.07h.05l.04-.07h.05l.09-.12h.05l.12-.14l.23-.21v-.05l.11-.09c.01-.02.02-.05.03-.07l.04-.02v-.05l.05-.02l.02-.07h.03v-.05l.041-.02v-.05c.02-.01.029-.01.049-.02c.01-.03.01-.06.02-.1c.02 0 .03-.01.05-.02c.01-.05.03-.09.04-.14h.03v-.04h.02c.02-.05.03-.1.05-.14h.02v-.07h.02c.01-.04.02-.07.03-.1h.02a.6.6 0 0 0 .02-.14h.03v-.07h.02v-.07h.02l.03-.16h.02v-.12h.02v-.11h.03v-.14h.02v-.19a4 4 0 0 0 .02-.86V4.23a4.6 4.6 0 0 0-.04-1v-.14c-.07-.23-.13-.45-.19-.68h-.02l-.03-.09h-.02v-.07h-.02c-.02-.05-.03-.1-.05-.14h-.02v-.05h-.03c-.01-.05-.03-.09-.04-.14c-.02-.01-.03-.01-.05-.02c-.01-.03-.01-.06-.02-.1c-.02 0-.03-.01-.05-.02v-.04l-.04-.03v-.04h-.03l-.02-.07l-.05-.03v-.04l-.04-.03l-.03-.07l-.11-.09v-.05l-.14-.11l-.21-.24h-.05l-.09-.11h-.05l-.04-.07h-.05l-.02-.05l-.07-.02V.66h-.05l-.02-.04l-.07-.03V.57l-.09-.02l-.03-.05l-.14-.05V.43h-.04V.41l-.14-.05V.34l-.12-.03V.29h-.04V.27l-.14-.03V.22h-.07V.2h-.07V.18h-.09V.15h-.1V.13h-.09V.11Zm11.813 6.818a83 83 0 0 1 2.088.011c.72.02 1.08.6 1.12 1.65c.02.47.02.941 0 1.401c-.05.98-.391 1.531-1.061 1.551c-1.43.04-2.86 0-4.29.02c-.48.01-.74-.402-.99-.872c-.22-.41-.46-.609-.69-.609c-.24.01-.39.29-.59.61c-.25.4-.74.938-1.24 1.628c1.216.409 2.446 1.122 3.34 2.041c0 0 1.05 1.432 2.25 1.442c.5.01 1.03.2 1.27-.82a.85.85 0 0 1 .92-.67c1.39.03 2.78-.011 4.17.029c.66.02 1.04.58 1.09 1.51c.02.53.02 1.06-.01 1.58c-.04.92-.42 1.49-1.09 1.51c-1.39.03-2.78.01-4.17.01c-.61 0-1.02-.42-1.12-1.27c-.06-.5-.23-.55-.5-.49l-1.19-.15a6.2 6.2 0 0 1-2.34-1.99a3.39 3.39 0 0 0-3.24-1.47c-.26.01-.33.19-.37.52c-.12.96-.55 1.34-1.21 1.34c-1.35-.02-2.7.02-4.05-.02c-.74-.02-1.12-.56-1.14-1.61c-.05-2.06-.14-3.17 1.91-3c.97.08 1.96.01 2.94.02c.48 0 .98-.11 1.35.56c.119.176.35.234.54.14c.41-.41.77-.93 1.16-1.41q.398-.58.89-1.079c.27-.22.67-.13.89-.38c.187-.373.33-.766.43-1.17a.84.84 0 0 1 .84-.561c.7.005 1.397 0 2.093-.002m-.73 1.095l-.733.006c-.92.01-1.04.232-.99 1.522c.03.66.23.93.68.92c.57-.02 1.14-.01 1.71-.01c.53 0 1.06.01 1.59 0c.83-.02.93-.15.92-1.25c-.01-1.07-.08-1.172-.98-1.182q-1.1-.011-2.197-.006m-7.97 3.866c-.38-.001-.762.011-1.144.011c-.57 0-1.139-.02-1.709.01c-.63.03-.73.2-.73 1.19c0 1.01.1 1.23.69 1.25q1.77.03 3.54 0c.53-.02.65-.25.67-1.11c.02-1.03-.09-1.3-.63-1.33q-.344-.021-.686-.021m12.886 3.515q-1.004 0-2.008.016c-.09 0-.182.19-.262.3a2.1 2.1 0 0 0 0 1.83c.09.11.172.31.262.31c1.34.02 2.68.02 4.01 0c.07 0 .139-.23.199-.34c0-.59.01-1.18.01-1.76c-.07-.12-.14-.34-.21-.34q-.997-.015-2.001-.016" class="cls-1"/></svg>